<?xml version="1.0" encoding="UTF-8"?>
<svg width="22" height="22" viewBox="0 0 22 22" xmlns="http://www.w3.org/2000/svg">
  <!-- 透明背景 -->
  <rect width="22" height="22" fill="none"/>
  
  <!-- 麦克风主体 - 阴影 -->
  <rect x="7.5" y="3.5" width="7" height="11" rx="3.5" ry="3.5" fill="#000000" opacity="0.3"/>
  
  <!-- 麦克风支架 - 阴影 -->
  <path d="M4.5 13.5 Q4.5 17.5 11.5 17.5 Q18.5 17.5 18.5 13.5" fill="none" stroke="#000000" stroke-width="2" stroke-linecap="round" opacity="0.3"/>
  
  <!-- 麦克风底座 - 阴影 -->
  <line x1="11.5" y1="17.5" x2="11.5" y2="19.5" stroke="#000000" stroke-width="2" stroke-linecap="round" opacity="0.3"/>
  <line x1="7.5" y1="19.5" x2="15.5" y2="19.5" stroke="#000000" stroke-width="2" stroke-linecap="round" opacity="0.3"/>
  
  <!-- 错误禁止符号 - 阴影 -->
  <line x1="4.5" y1="4.5" x2="17.5" y2="17.5" stroke="#000000" stroke-width="3" stroke-linecap="round" opacity="0.3"/>
  
  <!-- 麦克风主体 -->
  <rect x="7" y="3" width="7" height="11" rx="3.5" ry="3.5" fill="#f44336"/>
  
  <!-- 麦克风支架 -->
  <path d="M4 13 Q4 17 11 17 Q18 17 18 13" fill="none" stroke="#f44336" stroke-width="2" stroke-linecap="round"/>
  
  <!-- 麦克风底座 -->
  <line x1="11" y1="17" x2="11" y2="19" stroke="#f44336" stroke-width="2" stroke-linecap="round"/>
  <line x1="7" y1="19" x2="15" y2="19" stroke="#f44336" stroke-width="2" stroke-linecap="round"/>
  
  <!-- 错误禁止符号 -->
  <line x1="4" y1="4" x2="17" y2="17" stroke="#f44336" stroke-width="3" stroke-linecap="round"/>
</svg>